<?xml version="1.0" encoding="UTF-8"?>
<svg version="1.1" xmlns="http://www.w3.org/2000/svg" width="284" height="48">
<path d="M0 0 C6.14191168 3.64954172 10.24585288 8.51753617 12.5625 15.3125 C13.12405043 19.57601836 13.12249737 23.76768807 13.0625 28.0625 C13.07796875 29.18527344 13.0934375 30.30804688 13.109375 31.46484375 C13.10421875 32.54378906 13.0990625 33.62273438 13.09375 34.734375 C13.08923828 35.70987305 13.08472656 36.68537109 13.08007812 37.69042969 C12.41250723 41.07236902 11.29943063 42.26248998 8.5625 44.3125 C6.45605469 44.76660156 6.45605469 44.76660156 4.234375 44.703125 C3.43515625 44.69023438 2.6359375 44.67734375 1.8125 44.6640625 C0.575 44.61378906 0.575 44.61378906 -0.6875 44.5625 C-1.94820312 44.53542969 -1.94820312 44.53542969 -3.234375 44.5078125 C-5.30257395 44.46080798 -7.37018441 44.38906724 -9.4375 44.3125 C-9.54633596 41.93624823 -9.62516696 39.56506024 -9.6875 37.1875 C-9.72101562 36.52234375 -9.75453125 35.8571875 -9.7890625 35.171875 C-9.88946614 30.05128934 -8.71489541 27.20737571 -5.4375 23.3125 C-2.6875 22.4375 -2.6875 22.4375 -0.4375 22.3125 C-0.4375 21.6525 -0.4375 20.9925 -0.4375 20.3125 C-1.55125 20.2196875 -1.55125 20.2196875 -2.6875 20.125 C-6.30879113 19.05507307 -7.42462115 17.44364488 -9.4375 14.3125 C-9.4375 13.3225 -9.4375 12.3325 -9.4375 11.3125 C-10.0975 11.3125 -10.7575 11.3125 -11.4375 11.3125 C-11.52 11.89 -11.6025 12.4675 -11.6875 13.0625 C-12.85447913 16.56343738 -15.16936425 18.67843212 -18.4375 20.3125 C-20.98907655 20.3841735 -23.51222971 20.40558442 -26.0625 20.375 C-26.76890625 20.37048828 -27.4753125 20.36597656 -28.203125 20.36132812 C-29.94795275 20.34953875 -31.692737 20.33160324 -33.4375 20.3125 C-33.18272497 13.30618663 -31.26507489 8.48419937 -26.4375 3.3125 C-18.80001501 -2.52074786 -8.85536488 -4.06913188 0 0 Z " fill="#5F6FFF" transform="translate(35.4375,2.6875)"/>
<path d="M0 0 C2.39652528 -0.08139142 4.79025436 -0.14067009 7.1875 -0.1875 C7.86103516 -0.21263672 8.53457031 -0.23777344 9.22851562 -0.26367188 C13.69795374 -0.32907829 16.5083992 0.15948381 20 3 C22.68659934 6.50705783 22.2287964 10.52628505 22.125 14.75 C22.11597656 15.44738281 22.10695313 16.14476563 22.09765625 16.86328125 C22.07419888 18.57566958 22.03833104 20.28788004 22 22 C18.89601022 22.08710289 15.79233452 22.14042309 12.6875 22.1875 C11.80642578 22.21263672 10.92535156 22.23777344 10.01757812 22.26367188 C8.74624023 22.27817383 8.74624023 22.27817383 7.44921875 22.29296875 C6.66893311 22.3086792 5.88864746 22.32438965 5.0847168 22.34057617 C3 22 3 22 1.24023438 20.75976562 C-0.33227736 18.52853244 -0.34758074 17.26317684 -0.29296875 14.55078125 C-0.28330078 13.70322266 -0.27363281 12.85566406 -0.26367188 11.98242188 C-0.23853516 11.10134766 -0.21339844 10.22027344 -0.1875 9.3125 C-0.17396484 8.41982422 -0.16042969 7.52714844 -0.14648438 6.60742188 C-0.11114079 4.40433834 -0.06180493 2.20247418 0 0 Z " fill="#5F6FFF" transform="translate(2,25)"/>
<path d="M0 0 C2.31 0 4.62 0 7 0 C8.98 3.96 10.96 7.92 13 12 C14.98 8.04 16.96 4.08 19 0 C21.31 0 23.62 0 26 0 C26 9.24 26 18.48 26 28 C24.35 28 22.7 28 21 28 C20.67 22.39 20.34 16.78 20 11 C18.35 14.3 16.7 17.6 15 21 C10 20 10 20 8.63671875 18.15234375 C7.7578125 16.1015625 6.87890625 14.05078125 6 12 C5.67 17.28 5.34 22.56 5 28 C3.35 28 1.7 28 0 28 C0 18.76 0 9.52 0 0 Z " fill="#000A6B" transform="translate(207,9)"/>
<path d="M0 0 C1.134375 0.020625 2.26875 0.04125 3.4375 0.0625 C4.94526616 4.16385565 6.44237576 8.26902067 7.9375 12.375 C8.36675781 13.54224609 8.79601562 14.70949219 9.23828125 15.91210938 C9.64433594 17.03037109 10.05039063 18.14863281 10.46875 19.30078125 C10.84580078 20.33243408 11.22285156 21.36408691 11.61132812 22.42700195 C12.4375 25.0625 12.4375 25.0625 12.4375 28.0625 C10.7875 28.0625 9.1375 28.0625 7.4375 28.0625 C6.4475 26.0825 5.4575 24.1025 4.4375 22.0625 C1.1375 22.0625 -2.1625 22.0625 -5.5625 22.0625 C-6.2225 24.0425 -6.8825 26.0225 -7.5625 28.0625 C-9.5425 28.0625 -11.5225 28.0625 -13.5625 28.0625 C-12.92604785 24.48968907 -11.99040654 21.20552206 -10.75 17.796875 C-10.39679687 16.82492188 -10.04359375 15.85296875 -9.6796875 14.8515625 C-9.31101562 13.84867188 -8.94234375 12.84578125 -8.5625 11.8125 C-8.00949219 10.28496094 -8.00949219 10.28496094 -7.4453125 8.7265625 C-4.28467031 0.07516965 -4.28467031 0.07516965 0 0 Z M-1.5625 8.0625 C-2.5525 11.0325 -3.5425 14.0025 -4.5625 17.0625 C-1.9225 17.0625 0.7175 17.0625 3.4375 17.0625 C2.4475 14.0925 1.4575 11.1225 0.4375 8.0625 C-0.2225 8.0625 -0.8825 8.0625 -1.5625 8.0625 Z " fill="#000A6A" transform="translate(71.5625,8.9375)"/>
<path d="M0 0 C1.65 0 3.3 0 5 0 C5 9.57 5 19.14 5 29 C-4.91666667 30.41666667 -4.91666667 30.41666667 -10 30 C-12.43119623 28.12984906 -13.64069173 26.71861655 -15 24 C-15.42308538 19.40301468 -15.53894467 15.29346722 -13.75 11 C-11.84785935 8.82612498 -10.75017928 7.86434206 -8 7 C-2.64285714 6.67857143 -2.64285714 6.67857143 0 8 C0 5.36 0 2.72 0 0 Z M-5 11 C-8.35448654 13.45995679 -9.8223495 14.91189071 -10.5 19.0625 C-9.96248682 22.22038995 -9.14978703 23.67106405 -7 26 C-3.39007621 25.34414811 -3.39007621 25.34414811 0 24 C0 20.04 0 16.08 0 12 C-1.65 11.67 -3.3 11.34 -5 11 Z " fill="#00096C" transform="translate(275,8)"/>
<path d="M0 0 C3.11865569 2.0791038 4.6588005 3.72311845 5.63671875 7.3828125 C6.19074335 11.37417249 6.3365705 14.16743086 4.8125 17.9375 C1.54317111 21.6577708 1.54317111 21.6577708 -1 23 C-4.75 23.1875 -4.75 23.1875 -8 23 C-8.33 25.31 -8.66 27.62 -9 30 C-10.65 30 -12.3 30 -14 30 C-14 20.43 -14 10.86 -14 1 C-12.02 1 -10.04 1 -8 1 C-5.11138291 -0.44430855 -3.20352299 -0.37688506 0 0 Z M-9 6 C-9 9.96 -9 13.92 -9 18 C-4.3907587 19.38156681 -4.3907587 19.38156681 -1.6875 18.125 C0.67423344 15.1509653 0.39673839 12.76136809 0.3359375 9.05859375 C0.16989352 6.78056638 0.16989352 6.78056638 -2 5 C-4.78302919 4.79127281 -6.48718205 4.74359102 -9 6 Z " fill="#000A6B" transform="translate(101,15)"/>
<path d="M0 0 C2.87415982 2.31787082 3.04191365 4.18262377 3.875 7.8125 C4.27403336 12.17743638 3.17670297 15.17200512 1 19 C-0.75 20.9375 -0.75 20.9375 -3 22 C-6.75 22.1875 -6.75 22.1875 -10 22 C-10.33 24.31 -10.66 26.62 -11 29 C-12.65 29 -14.3 29 -16 29 C-16 19.43 -16 9.86 -16 0 C-5.79141104 -1.27607362 -5.79141104 -1.27607362 0 0 Z M-11 5 C-11 8.96 -11 12.92 -11 17 C-6.26250374 18.55256876 -6.26250374 18.55256876 -3.6875 16.5 C-1.42189665 13.14355059 -1.56651226 10.97363762 -2 7 C-2.66 6.01 -3.32 5.02 -4 4 C-6.80561762 3.71943824 -8.46578263 3.73289132 -11 5 Z " fill="#000A6A" transform="translate(127,16)"/>
<path d="M0 0 C3.85941588 3.1357754 3.24234578 5.69642045 4 11 C-1.28 11 -6.56 11 -12 11 C-10.02 13.97 -10.02 13.97 -8 17 C-4.37 16.67 -0.74 16.34 3 16 C2.67 17.65 2.34 19.3 2 21 C-3.02950475 22.67650158 -8.02791589 22.83918473 -12.9375 20.75 C-15.2301749 18.80470008 -16.14422374 17.87852015 -17 15 C-17.42161717 9.68762372 -17.53159711 6.26227237 -14 2 C-9.68564005 -1.80678819 -5.29700438 -1.48275219 0 0 Z M-9.8125 4.3125 C-11.19183114 5.92869435 -11.19183114 5.92869435 -11 8 C-8.03 8 -5.06 8 -2 8 C-2.33 6.68 -2.66 5.36 -3 4 C-6.58563992 2.80757578 -6.58563992 2.80757578 -9.8125 4.3125 Z " fill="#000A6A" transform="translate(254,16)"/>
<path d="M0 0 C2.5625 1.8125 2.5625 1.8125 4 5 C4.73223835 9.68502944 5.34423123 14.62551855 2.9296875 18.890625 C0.27065819 21.41888238 -2.50733004 22.32638814 -6.0625 22.5625 C-10.36116046 21.94840565 -12.01296996 21.0775461 -15 18 C-16.96881005 14.06237991 -16.45834498 9.29233883 -16 5 C-12.12405955 -1.68265594 -6.9435206 -1.74214687 0 0 Z M-9.125 4.5 C-11.90492812 8.20657082 -11.50847672 10.42370948 -11 15 C-9.99511774 17.17500647 -9.99511774 17.17500647 -8 18 C-5.40882687 17.99843776 -5.40882687 17.99843776 -3 17 C-0.51961093 13.2794164 -0.53662797 11.40203429 -1 7 C-2.73010388 4.51768273 -2.73010388 4.51768273 -5 3 C-7.16119096 2.80777227 -7.16119096 2.80777227 -9.125 4.5 Z " fill="#000A6C" transform="translate(149,16)"/>
<path d="M0 0 C3.57757361 3.71007634 2.80984342 8.62966634 2.75 13.5 C2.74548828 14.19738281 2.74097656 14.89476563 2.73632812 15.61328125 C2.7246002 17.32555803 2.70666653 19.03779033 2.6875 20.75 C0.7075 20.75 -1.2725 20.75 -3.3125 20.75 C-3.6425 15.47 -3.9725 10.19 -4.3125 4.75 C-6.6225 4.75 -8.9325 4.75 -11.3125 4.75 C-11.3125 10.03 -11.3125 15.31 -11.3125 20.75 C-12.9625 20.75 -14.6125 20.75 -16.3125 20.75 C-16.3125 13.82 -16.3125 6.89 -16.3125 -0.25 C-3.43940355 -1.85913706 -3.43940355 -1.85913706 0 0 Z " fill="#00096B" transform="translate(184.3125,16.25)"/>
<path d="M0 0 C1.65 0 3.3 0 5 0 C5 1.98 5 3.96 5 6 C7.31 6 9.62 6 12 6 C12 7.32 12 8.64 12 10 C9.69 10 7.38 10 5 10 C5.33 14.29 5.66 18.58 6 23 C7.98 23 9.96 23 12 23 C11.67 24.65 11.34 26.3 11 28 C4.77293935 28.3592535 4.77293935 28.3592535 1.78125 26.96875 C-0.87770777 24.02990194 -0.43187345 21.0583935 -0.25 17.3125 C-0.23195312 16.61060547 -0.21390625 15.90871094 -0.1953125 15.18554688 C-0.14826213 13.45644564 -0.07651873 11.72804795 0 10 C-0.99 10 -1.98 10 -3 10 C-3 8.68 -3 7.36 -3 6 C-2.01 6 -1.02 6 0 6 C0 4.02 0 2.04 0 0 Z " fill="#000A6C" transform="translate(192,10)"/>
<path d="M0 0 C1.65 0 3.3 0 5 0 C6 1 6 1 6.11352539 2.94946289 C6.10828857 3.7821167 6.10305176 4.61477051 6.09765625 5.47265625 C6.09443359 6.37177734 6.09121094 7.27089844 6.08789062 8.19726562 C6.07951172 9.14279297 6.07113281 10.08832031 6.0625 11.0625 C6.05798828 12.01189453 6.05347656 12.96128906 6.04882812 13.93945312 C6.0370011 16.29303065 6.02052025 18.64648477 6 21 C4.02 21 2.04 21 0 21 C0 14.07 0 7.14 0 0 Z " fill="#00095B" transform="translate(157,16)"/>
<path d="M0 0 C1.98 0 3.96 0 6 0 C6 1.32 6 2.64 6 4 C4.02 4 2.04 4 0 4 C0 2.68 0 1.36 0 0 Z " fill="#00096C" transform="translate(157,9)"/>
<path d="M0 0 C1.32 0 2.64 0 4 0 C3.67 1.65 3.34 3.3 3 5 C1.68 4.67 0.36 4.34 -1 4 C-0.67 2.68 -0.34 1.36 0 0 Z " fill="#5F6FFF" transform="translate(44,1)"/>
</svg>
