<?xml version="1.0" encoding="UTF-8"?>
<svg version="1.1" xmlns="http://www.w3.org/2000/svg" width="46" height="46">
<path d="M0 0 C6.14191168 3.64954172 10.24585288 8.51753617 12.5625 15.3125 C13.12405043 19.57601836 13.12249737 23.76768807 13.0625 28.0625 C13.07796875 29.18527344 13.0934375 30.30804687 13.109375 31.46484375 C13.10421875 32.54378906 13.0990625 33.62273438 13.09375 34.734375 C13.08923828 35.70987305 13.08472656 36.68537109 13.08007812 37.69042969 C12.41250723 41.07236902 11.29943063 42.26248998 8.5625 44.3125 C6.45605469 44.76660156 6.45605469 44.76660156 4.234375 44.703125 C3.43515625 44.69023438 2.6359375 44.67734375 1.8125 44.6640625 C0.575 44.61378906 0.575 44.61378906 -0.6875 44.5625 C-1.94820312 44.53542969 -1.94820312 44.53542969 -3.234375 44.5078125 C-5.30257395 44.46080798 -7.37018441 44.38906724 -9.4375 44.3125 C-9.54633596 41.93624823 -9.62516696 39.56506024 -9.6875 37.1875 C-9.72101562 36.52234375 -9.75453125 35.8571875 -9.7890625 35.171875 C-9.88946614 30.05128934 -8.71489541 27.20737571 -5.4375 23.3125 C-2.6875 22.4375 -2.6875 22.4375 -0.4375 22.3125 C-0.4375 21.6525 -0.4375 20.9925 -0.4375 20.3125 C-1.55125 20.2196875 -1.55125 20.2196875 -2.6875 20.125 C-6.30879113 19.05507307 -7.42462115 17.44364488 -9.4375 14.3125 C-9.4375 13.3225 -9.4375 12.3325 -9.4375 11.3125 C-10.0975 11.3125 -10.7575 11.3125 -11.4375 11.3125 C-11.52 11.89 -11.6025 12.4675 -11.6875 13.0625 C-12.85447913 16.56343738 -15.16936425 18.67843212 -18.4375 20.3125 C-20.98907655 20.3841735 -23.51222971 20.40558442 -26.0625 20.375 C-26.76890625 20.37048828 -27.4753125 20.36597656 -28.203125 20.36132812 C-29.94795275 20.34953875 -31.692737 20.33160324 -33.4375 20.3125 C-33.18272497 13.30618663 -31.26507489 8.48419937 -26.4375 3.3125 C-18.80001501 -2.52074786 -8.85536488 -4.06913188 0 0 Z " fill="#5F6FFF" transform="translate(33.4375,1.6875)"/>
<path d="M0 0 C2.39652528 -0.08139142 4.79025436 -0.14067009 7.1875 -0.1875 C7.86103516 -0.21263672 8.53457031 -0.23777344 9.22851562 -0.26367188 C13.69795374 -0.32907829 16.5083992 0.15948381 20 3 C22.68659934 6.50705783 22.2287964 10.52628505 22.125 14.75 C22.11597656 15.44738281 22.10695313 16.14476563 22.09765625 16.86328125 C22.07419888 18.57566958 22.03833104 20.28788004 22 22 C18.89601022 22.08710289 15.79233452 22.14042309 12.6875 22.1875 C11.80642578 22.21263672 10.92535156 22.23777344 10.01757812 22.26367188 C8.74624023 22.27817383 8.74624023 22.27817383 7.44921875 22.29296875 C6.66893311 22.3086792 5.88864746 22.32438965 5.0847168 22.34057617 C3 22 3 22 1.24023438 20.75976562 C-0.33227736 18.52853244 -0.34758074 17.26317684 -0.29296875 14.55078125 C-0.28330078 13.70322266 -0.27363281 12.85566406 -0.26367188 11.98242188 C-0.23853516 11.10134766 -0.21339844 10.22027344 -0.1875 9.3125 C-0.17396484 8.41982422 -0.16042969 7.52714844 -0.14648438 6.60742188 C-0.11114079 4.40433834 -0.06180493 2.20247418 0 0 Z " fill="#5F6FFF" transform="translate(0,24)"/>
<path d="M0 0 C1.32 0 2.64 0 4 0 C3.67 1.65 3.34 3.3 3 5 C1.68 4.67 0.36 4.34 -1 4 C-0.67 2.68 -0.34 1.36 0 0 Z " fill="#5F6FFF" transform="translate(42,0)"/>
</svg>
